<mxfile host="65bd71144e">
    <diagram id="t8A0oF1W4IQj9weJO2UF" name="Page-1">
        <mxGraphModel dx="1002" dy="563" grid="1" gridSize="10" guides="1" tooltips="1" connect="1" arrows="1" fold="1" page="1" pageScale="1" pageWidth="850" pageHeight="1100" math="0" shadow="0">
            <root>
                <mxCell id="0"/>
                <mxCell id="1" parent="0"/>
                <mxCell id="2" value="[&amp;nbsp; &amp;nbsp; &amp;nbsp;] seconds" style="rounded=1;whiteSpace=wrap;html=1;" vertex="1" parent="1">
                    <mxGeometry x="230" y="160" width="370" height="60" as="geometry"/>
                </mxCell>
                <mxCell id="3" value="+" style="rounded=1;whiteSpace=wrap;html=1;" vertex="1" parent="1">
                    <mxGeometry x="400" y="240" width="30" height="30" as="geometry"/>
                </mxCell>
                <mxCell id="4" value="[&amp;nbsp; &amp;nbsp; &amp;nbsp;] seconds" style="rounded=1;whiteSpace=wrap;html=1;" vertex="1" parent="1">
                    <mxGeometry x="230" y="90" width="370" height="60" as="geometry"/>
                </mxCell>
                <mxCell id="5" value="[&amp;nbsp; &amp;nbsp; &amp;nbsp;] seconds" style="rounded=1;whiteSpace=wrap;html=1;" vertex="1" parent="1">
                    <mxGeometry x="230" y="20" width="370" height="60" as="geometry"/>
                </mxCell>
                <mxCell id="6" value="RUN" style="rounded=1;whiteSpace=wrap;html=1;" vertex="1" parent="1">
                    <mxGeometry x="355" y="290" width="120" height="60" as="geometry"/>
                </mxCell>
            </root>
        </mxGraphModel>
    </diagram>
</mxfile>
